<svg width="190" height="190" xmlns="http://www.w3.org/2000/svg" xmlns:xlink="http://www.w3.org/1999/xlink" overflow="hidden"><defs><clipPath id="clip0"><rect x="229" y="168" width="190" height="190"/></clipPath></defs><g clip-path="url(#clip0)" transform="translate(-229 -168)"><path d="M229 200.501C229 183.103 243.103 169 260.501 169L386.499 169C403.897 169 418 183.103 418 200.501L418 326.499C418 343.897 403.897 358 386.499 358L260.501 358C243.103 358 229 343.897 229 326.499Z" fill="#0070C0" fill-rule="evenodd"/><path d="M239 236.771 297.771 236.771 297.771 178 350.229 178 350.229 236.771 409 236.771 409 289.229 350.229 289.229 350.229 348 297.771 348 297.771 289.229 239 289.229Z" fill="#FFFFFF" fill-rule="evenodd"/><text fill="#7F7F7F" font-family="Georgia,Georgia_MSFontService,sans-serif" font-weight="400" font-size="48" transform="translate(281.553 275)">&lt;/&gt;</text></g></svg>